<?xml version="1.0" encoding="UTF-8" standalone="no"?>
<!-- Created with Inkscape (http://www.inkscape.org/) -->

<svg
   width="210mm"
   height="297mm"
   viewBox="0 0 210 297"
   version="1.1"
   id="svg1"
   inkscape:version="1.3.2 (091e20e, 2023-11-25, custom)"
   sodipodi:docname="Mycelium.svg"
   xmlns:inkscape="http://www.inkscape.org/namespaces/inkscape"
   xmlns:sodipodi="http://sodipodi.sourceforge.net/DTD/sodipodi-0.dtd"
   xmlns="http://www.w3.org/2000/svg"
   xmlns:svg="http://www.w3.org/2000/svg">
  <sodipodi:namedview
     id="namedview1"
     pagecolor="#ffffff"
     bordercolor="#000000"
     borderopacity="0.25"
     inkscape:showpageshadow="2"
     inkscape:pageopacity="0.0"
     inkscape:pagecheckerboard="0"
     inkscape:deskcolor="#d1d1d1"
     inkscape:document-units="mm"
     inkscape:zoom="1.4324567"
     inkscape:cx="283.42916"
     inkscape:cy="614.67827"
     inkscape:window-width="2560"
     inkscape:window-height="1351"
     inkscape:window-x="-9"
     inkscape:window-y="-9"
     inkscape:window-maximized="1"
     inkscape:current-layer="layer1" />
  <defs
     id="defs1" />
  <g
     inkscape:label="Layer 1"
     inkscape:groupmode="layer"
     id="layer1">
    <ellipse
       style="fill:#ab37c8;stroke:#000000;stroke-width:2.265;stroke-opacity:1;stroke-dasharray:none"
       id="path3"
       cx="105"
       cy="148.5"
       rx="16.321899"
       ry="16.717678" />
    <path
       style="fill:none;stroke:#000000;stroke-width:2.265;stroke-dasharray:none;stroke-opacity:1"
       d="m 121.3219,148.5 c 17.12137,0 22.08443,-13.97494 22.08443,-13.97494 0,0 7.5752,-15.58689 15.67282,-3.87524 8.09763,11.71166 19.32982,2.04675 19.32982,2.04675 l 7.83641,-5.7467"
       id="path4" />
    <path
       style="fill:none;stroke:#000000;stroke-width:2.265;stroke-dasharray:none;stroke-opacity:1"
       d="m 143.40633,134.52506 c 0,0 -7.5752,-7.83641 -3.39578,-13.32189 4.17942,-5.48549 4.17942,-5.48549 4.17942,-5.48549 0,0 5.22428,-7.5752 18.80739,-6.00792"
       id="path5" />
    <path
       style="fill:none;stroke:#000000;stroke-width:2.265;stroke-dasharray:none;stroke-opacity:1"
       d="m 167.43799,135.31217 c 0,0 -7.31398,21.72024 8.88127,18.02028"
       id="path6" />
    <path
       style="fill:none;stroke:#000000;stroke-width:2.265;stroke-dasharray:none;stroke-opacity:1"
       d="m 113.96925,162.46726 c 0,0 14.5479,-0.51476 16.63761,8.88894 2.08971,9.40369 7.5752,24.55409 18.02374,23.77045 10.44855,-0.78365 17.76254,-3.13457 24.29288,-6.00792"
       id="path7" />
    <path
       style="fill:none;stroke:#000000;stroke-width:2.265;stroke-dasharray:none;stroke-opacity:1"
       d="m 130.60686,171.3562 c 0,0 10.44614,6.26913 16.97889,-3.65699 6.53275,-9.92613 25.79383,0.52242 25.79383,0.52242"
       id="path8" />
    <path
       style="fill:none;stroke:#000000;stroke-width:2.265;stroke-dasharray:none;stroke-opacity:1"
       d="m 137.62152,190.94723 c -7.59743,13.3219 -26.60569,14.88918 -26.60569,14.88918 0,0 -10.98681,1.56728 -6.01583,13.58311"
       id="path9" />
    <path
       style="fill:none;stroke:#000000;stroke-width:2.265;stroke-dasharray:none;stroke-opacity:1"
       d="m 105,165.21768 c 5.75462,20.76649 -7.567284,27.29683 -7.567284,27.29683 0,0 -6.007915,4.70185 -2.612136,10.97098 3.395776,6.26913 16.19525,2.35092 16.19525,2.35092"
       id="path10" />
    <path
       style="fill:none;stroke:#000000;stroke-width:2.265;stroke-dasharray:none;stroke-opacity:1"
       d="m 137.62152,190.94723 0.98376,-1.73054"
       id="path11" />
    <path
       style="fill:none;stroke:#000000;stroke-width:2.265;stroke-dasharray:none;stroke-opacity:1"
       d="m 154.1185,164.91525 c 4.72865,13.89356 9.83505,-0.99497 7.31454,13.89356"
       id="path12" />
    <path
       style="fill:none;stroke:#000000;stroke-width:2.265;stroke-dasharray:none;stroke-opacity:1"
       d="m 153.80397,163.69257 0.31453,1.22268 c 0.63121,1.68509 0.63121,1.68509 0.63121,1.68509"
       id="path13" />
    <path
       style="fill:none;stroke:#000000;stroke-width:2.265;stroke-dasharray:none;stroke-opacity:1"
       d="m 47.540896,185.85356 c 0,0 3.003958,11.10158 15.01979,13.06068 12.01583,1.95911 12.668864,-10.25723 12.407651,-10.25723 -0.261215,0 0.653034,-12.86018 0.653034,-13.51321 0,-0.65304 3.134564,-11.73338 17.046739,-13.81437 l 1.631921,-0.20518"
       id="path14" />
    <path
       style="fill:none;stroke:#000000;stroke-width:2.265;stroke-dasharray:none;stroke-opacity:1"
       d="m 80.323218,168.36078 c 0,0 8.813419,-1.184 10.579155,7.30545 1.765737,8.48944 -5.35488,12.99078 -5.35488,12.99078 -4.96306,11.59143 -12.146438,16.46231 -12.146438,16.46231"
       id="path15" />
    <path
       style="fill:none;stroke:#000000;stroke-width:2.265;stroke-dasharray:none;stroke-opacity:1"
       d="m 85.547493,188.65701 c 0,0 -2.36347,10.64906 3.26517,15.61212"
       id="path16" />
    <path
       style="fill:none;stroke:#000000;stroke-width:2.265;stroke-dasharray:none;stroke-opacity:1"
       d="m 80.323218,168.36078 -1.474684,0.50959"
       id="path17" />
    <path
       style="fill:none;stroke:#000000;stroke-width:2.265;stroke-dasharray:none;stroke-opacity:1"
       d="m 105.77632,180.8279 c 0,0 2.97834,6.41295 8.8965,5.7193"
       id="path18" />
    <path
       style="fill:none;stroke:#000000;stroke-width:2.265;stroke-dasharray:none;stroke-opacity:1"
       d="m 114.67282,186.5472 c 6.64908,-2.50616 6.20383,-8.00762 6.20383,-8.00762"
       id="path19" />
    <path
       style="fill:none;stroke:#000000;stroke-width:2.265;stroke-dasharray:none;stroke-opacity:1"
       d="m 114.67282,186.5472 c 0,0 -0.10612,0.14673 -0.56324,0"
       id="path20" />
    <path
       style="fill:none;stroke:#000000;stroke-width:2.265;stroke-dasharray:none;stroke-opacity:1"
       d="m 88.678101,148.5 c -14.241587,0 -18.233594,2.95891 -18.233594,2.95891 0,0 -0.896853,18.10481 -12.446825,7.57295 C 46.447709,148.5 41.743553,174.43696 41.743553,174.43696"
       id="path21" />
    <path
       style="fill:none;stroke:#000000;stroke-width:2.265;stroke-dasharray:none;stroke-opacity:1"
       d="M 70.444507,151.45891 C 48.577677,139.63773 55.411798,124.12242 55.411798,124.12242 l 0.923528,-2.28373"
       id="path22" />
    <path
       style="fill:none;stroke:#000000;stroke-width:2.265;stroke-dasharray:none;stroke-opacity:1"
       d="m 64.653665,162.2846 c -9.795987,12.15236 -4.254807,20.74297 -4.254807,20.74297"
       id="path23" />
    <path
       style="fill:none;stroke:#000000;stroke-width:2.265;stroke-dasharray:none;stroke-opacity:1"
       d="M 92.66811,136.93463 C 70.444507,125.15633 70.983075,110.45418 70.983075,110.45418"
       id="path24" />
    <path
       style="fill:none;stroke:#000000;stroke-width:2.265;stroke-dasharray:none;stroke-opacity:1"
       d="m 78.478649,127.07772 c 0,0 -3.189118,9.72673 -12.943279,6.64942"
       id="path25" />
    <path
       style="fill:none;stroke:#000000;stroke-width:2.265;stroke-dasharray:none;stroke-opacity:1"
       d="m 115.97329,136.12433 c 14.0508,-24.00779 17.01502,-0.81216 17.01502,-0.81216"
       id="path26" />
    <path
       style="fill:none;stroke:#000000;stroke-width:2.265;stroke-dasharray:none;stroke-opacity:1"
       d="m 127.63184,125.15633 c 2.39225,-23.01392 -17.85492,-24.49156 -17.85492,-24.49156"
       id="path27" />
    <path
       style="fill:none;stroke:#000000;stroke-width:2.265;stroke-dasharray:none;stroke-opacity:1"
       d="m 124.55378,108.36522 c 0,0 3.10831,-6.22281 9.55789,-5.48398 6.44959,0.73882 12.72959,2.40117 12.72959,2.40117"
       id="path28" />
    <path
       style="fill:none;stroke:#000000;stroke-width:2.265;stroke-dasharray:none;stroke-opacity:1"
       d="m 105,131.78232 c -1.37994,-21.3696 -12.687805,-10.3682 -12.687805,-10.3682 0,0 -9.855618,5.56409 -12.757412,-7.08111 -2.901796,-12.6452 -2.901796,-12.6452 -2.901796,-12.6452"
       id="path29" />
    <path
       style="fill:none;stroke:#000000;stroke-width:2.265;stroke-dasharray:none;stroke-opacity:1"
       d="m 92.312195,121.41412 c 3.919625,6.40242 0.355915,7.14125 0.355915,7.14125"
       id="path30" />
    <path
       style="fill:none;stroke:#000000;stroke-width:2.265;stroke-dasharray:none;stroke-opacity:1"
       d="m 92.312195,121.41412 c 13.817945,-16.13457 19.619635,-5.60346 19.619635,-5.60346 0,0 12.62195,5.61149 12.62195,-7.44544 0,-13.056928 0,-12.872222 0,-12.872222"
       id="path31" />
    <path
       style="fill:none;stroke:#000000;stroke-width:2.265;stroke-dasharray:none;stroke-opacity:1"
       d="m 104.12683,112.64155 c 0,0 -16.511299,-1.07913 -12.674803,-8.46737"
       id="path32" />
    <path
       style="fill:none;stroke:#000000;stroke-width:2.265;stroke-dasharray:none;stroke-opacity:1"
       d="m 109.77692,100.66477 c 0,0 -14.594099,0.73854 -16.459496,-5.171913"
       id="path33" />
    <path
       style="fill:none;stroke:#000000;stroke-width:2.265;stroke-dasharray:none;stroke-opacity:1"
       d="m 147.58575,167.69921 c -3.93136,-9.96029 -13.47408,-12.82042 -13.47408,-12.82042"
       id="path34" />
  </g>
</svg>
